<svg xmlns="http://www.w3.org/2000/svg" width="312" height="101" fill="none" viewBox="0 0 312 101"><path fill="#1E1F40" d="M6.34 95h3.41c-.009.466-.09.928-.24 1.37-.138.414-.37.791-.68 1.1-.307.309-.68.544-1.09.69-.487.16-.998.235-1.51.22-.603.023-1.202-.108-1.74-.38-.474-.261-.878-.631-1.18-1.08-.317-.474-.55-.998-.69-1.55-.293-1.172-.293-2.398 0-3.57.14-.552.373-1.076.69-1.55.302-.449.706-.819 1.18-1.08.536-.283 1.135-.424 1.74-.41.389.002.775.056 1.15.16.357.106.694.268 1 .48.29.21.534.475.72.78.199.33.328.698.38 1.08v.06h2.34v-.08c-.066-.683-.277-1.345-.62-1.94-.297-.56-.705-1.054-1.2-1.45-.53-.387-1.127-.675-1.76-.85-.65-.19-1.323-.284-2-.28-.9-.015-1.792.173-2.61.55-.764.342-1.446.843-2 1.47-.538.642-.946 1.382-1.2 2.18-.573 1.703-.573 3.547 0 5.25.265.796.682 1.534 1.23 2.17.554.627 1.236 1.128 2 1.47.821.363 1.712.544 2.61.53.72.015 1.436-.121 2.1-.4.663-.318 1.252-.771 1.73-1.33l.28 1.39H12v-6.88H6.34V95zM26.49 98.59c-.114-.66-.171-1.33-.17-2 .009-.434-.055-.867-.19-1.28-.11-.313-.28-.602-.5-.85-.178-.2-.396-.36-.64-.47-.141-.065-.289-.115-.44-.15l.33-.15c.277-.133.525-.32.73-.55.277-.29.498-.629.65-1 .199-.492.294-1.02.28-1.55.025-.489-.06-.977-.25-1.429-.188-.451-.475-.855-.84-1.181-.928-.704-2.078-1.051-3.24-.98H16v13h2.4v-5.29h3.24c.422-.015.842.05 1.24.19.303.124.563.332.75.6.193.304.322.644.38 1 .077.496.114.998.11 1.5v1c.024.353.13.695.31 1h2.63l-.06-.12c-.28-.378-.455-.823-.51-1.29zM18.4 89H22c.275-.002.55.021.82.07.247.04.482.132.69.27.208.146.37.347.47.58.138.315.2.657.18 1 .02.272-.017.546-.11.803s-.24.491-.43.687c-.448.354-1.01.528-1.58.49H18.4V89zM32.93 94.3h6.48v-1.99h-6.48v-3.22h7V87h-9.4v13h9.53v-2.09h-7.13V94.3zM49.63 87h-2.5l-5 12.9v.1h2.48l1.21-3.4h5l1.24 3.4h2.57l-5-13zm.58 7.74H46.5l1.86-5.3 1.85 5.3zM54.59 89.09h4.07V100h2.4V89.09h4.09V87H54.59v2.09zM84.46 88.41c-.369-.435-.835-.778-1.36-1-.718-.288-1.487-.425-2.26-.4H75.1V100h2.4v-4.93h3.34c.773.03 1.544-.107 2.26-.4.53-.215.997-.558 1.36-1 .312-.382.534-.83.65-1.31.24-.857.24-1.763 0-2.62-.115-.486-.337-.94-.65-1.33zm-7 .58h3.25c.279 0 .557.027.83.08.244.057.472.166.67.32.201.17.359.386.46.63.128.318.19.658.18 1 .012.344-.056.687-.2 1-.123.244-.3.457-.52.62-.212.153-.449.268-.7.34-.248.067-.503.1-.76.1H77.5l-.04-4.09zM91.3 94.3h6.48v-1.99H91.3v-3.22h7V87h-9.4v13h9.53v-2.09H91.3V94.3zM112.16 88.75c-.554-.627-1.236-1.128-2-1.47-1.193-.558-2.534-.716-3.824-.451-1.289.265-2.46.938-3.336 1.921-.54.641-.957 1.377-1.23 2.17-.56 1.705-.56 3.545 0 5.25.273.793.69 1.529 1.23 2.17.557.624 1.238 1.125 2 1.47.828.35 1.717.53 2.615.53.898 0 1.788-.18 2.615-.53.764-.342 1.446-.843 2-1.47.544-.639.961-1.375 1.23-2.17.573-1.703.573-3.547 0-5.25-.29-.8-.731-1.537-1.3-2.17zM109.32 98c-.532.284-1.128.425-1.73.41-.575.02-1.145-.105-1.658-.366-.512-.26-.95-.648-1.272-1.124-.31-.476-.54-1-.68-1.55-.293-1.172-.293-2.398 0-3.57.14-.55.37-1.074.68-1.55.523-.703 1.279-1.197 2.132-1.394.853-.198 1.749-.087 2.528.314.478.258.887.629 1.19 1.08.317.474.55.998.69 1.55.293 1.172.293 2.398 0 3.57-.137.553-.371 1.078-.69 1.55-.303.451-.712.822-1.19 1.08zM126.89 88.41c-.371-.433-.836-.775-1.36-1-.718-.287-1.487-.423-2.26-.4h-5.75V100h2.4v-4.93h3.35c.773.029 1.544-.108 2.26-.4.528-.217.995-.56 1.36-1 .305-.387.526-.833.65-1.31.227-.859.227-1.761 0-2.62-.124-.483-.345-.936-.65-1.33zm-7 .58h3.26c.275 0 .55.027.82.08.247.057.479.166.68.32.201.17.359.386.46.63.124.318.182.659.17 1 .015.344-.05.686-.19 1-.126.242-.303.454-.52.62-.216.153-.456.268-.71.34-.244.067-.497.1-.75.1h-3.22v-4.09zM133.72 87h-2.4v13h8.94v-2.09h-6.54V87zM145.85 94.3h6.48v-1.99h-6.48v-3.22h7.01V87h-9.4v13h9.52v-2.09h-7.13V94.3zM169.5 88.78h-1.98v3.64h-3.62v1.98h3.62v3.64h1.98V94.4h3.62v-1.98h-3.62v-3.64zM192 94.24c-.22-.31-.49-.58-.8-.8-.34-.244-.719-.43-1.12-.55l-.84-.23h-.21l-1-.26-1.11-.3-.57-.15c-.396-.105-.762-.3-1.07-.57-.22-.236-.358-.537-.392-.858-.034-.321.037-.645.202-.922.137-.206.322-.374.54-.49.233-.124.482-.215.74-.27.26-.05.525-.078.79-.08.664-.029 1.321.15 1.88.51.26.197.47.453.613.747.142.293.213.617.207.943V91h2.4v-.07c.011-.628-.129-1.249-.41-1.81-.258-.515-.631-.963-1.09-1.31-.476-.362-1.015-.634-1.59-.8-.625-.175-1.271-.263-1.92-.26-.584.002-1.166.08-1.73.23-.548.138-1.067.376-1.53.7-.451.314-.827.723-1.1 1.2-.28.53-.421 1.121-.41 1.72-.002.338.045.675.14 1 .089.361.249.701.47 1 .248.316.549.587.89.8.432.265.905.458 1.4.57.91.25 1.64.44 2.24.59.6.15 1.13.31 1.59.47.265.108.504.272.7.48.219.286.328.64.31 1-.002.234-.05.465-.14.68-.097.232-.252.435-.45.59-.242.196-.521.342-.82.43-.399.12-.814.178-1.23.17-.421.004-.841-.047-1.25-.15-.361-.093-.701-.256-1-.48-.294-.214-.528-.5-.68-.83-.179-.381-.265-.8-.25-1.22v-.1H182v.08c-.005.722.153 1.436.46 2.09.276.568.676 1.067 1.17 1.46.515.386 1.099.67 1.72.84.681.183 1.384.274 2.09.27.637.002 1.271-.072 1.89-.22.592-.144 1.154-.392 1.66-.73.489-.326.897-.76 1.19-1.27.313-.576.469-1.225.45-1.88-.002-.34-.056-.677-.16-1-.093-.36-.253-.699-.47-1zM203.04 96.96L199.53 87h-3.3v13h2.3v-9.66l3.45 9.61.02.05h1.96l3.47-9.66V100h2.29V87h-3.26l-3.42 9.96zM220 87h-2.5l-4.95 12.9v.1H215l1.2-3.4h5l1.21 3.4H225l-5-13zm.58 7.74h-3.68l1.86-5.3 1.82 5.3zM238.37 98.59c-.119-.66-.176-1.33-.17-2 .011-.435-.057-.869-.2-1.28-.103-.314-.27-.603-.49-.85-.18-.198-.397-.358-.64-.47-.141-.065-.289-.115-.44-.15l.33-.15c.277-.133.525-.32.73-.55.277-.29.498-.629.65-1 .195-.493.287-1.02.27-1.55.027-.488-.057-.976-.244-1.428-.187-.451-.472-.855-.836-1.182-.934-.69-2.083-1.023-3.24-.94h-6.21V100h2.4v-5.29h3.24c.422-.015.842.05 1.24.19.301.121.559.33.74.6.2.301.333.642.39 1 .077.496.114.998.11 1.5v1c.024.353.13.695.31 1H239l-.12-.12c-.279-.378-.455-.823-.51-1.29zM230.28 89h3.58c.275-.002.549.021.82.07.247.04.482.132.69.27.208.146.37.347.47.58.134.316.192.658.17 1 .018.271-.02.543-.111.8-.092.256-.234.49-.419.69-.452.353-1.018.528-1.59.49h-3.61V89zM240.8 89.09h4.07V100h2.4V89.09h4.09V87H240.8v2.09zM260 89.09h4.07V100h2.4V89.09h4.08V87H260v2.09zM276.18 94.3h6.47v-1.99h-6.47v-3.22h7V87h-9.4v13h9.52v-2.09h-7.12V94.3zM295.67 95.06c-.044.442-.148.876-.31 1.29-.142.387-.356.743-.63 1.05-.28.302-.621.54-1 .7-.413.179-.86.268-1.31.26-.602.014-1.198-.127-1.73-.41-.478-.258-.887-.629-1.19-1.08-.316-.472-.547-.997-.68-1.55-.309-1.17-.309-2.4 0-3.57.133-.553.364-1.078.68-1.55.303-.451.712-.822 1.19-1.08.532-.283 1.128-.424 1.73-.41.411-.005.82.06 1.21.19.333.115.642.291.91.52.252.223.465.486.63.78.164.32.294.654.39 1v.06H298v-.08c-.048-.64-.23-1.264-.533-1.83-.303-.567-.721-1.064-1.227-1.46-.514-.39-1.093-.684-1.71-.87-.667-.204-1.362-.305-2.06-.3-.9-.015-1.792.173-2.61.55-.764.342-1.446.843-2 1.47-.544.639-.961 1.375-1.23 2.17-.573 1.703-.573 3.547 0 5.25.269.795.686 1.531 1.23 2.17.554.627 1.236 1.128 2 1.47.822.362 1.712.542 2.61.53.741.008 1.476-.121 2.17-.38.641-.244 1.226-.615 1.72-1.09.492-.476.886-1.043 1.16-1.67.289-.676.458-1.396.5-2.13V95h-2.35v.06zM309.6 87.03v5.11h-5.7v-5.11h-2.4v13h2.4v-5.79h5.7v5.79h2.4v-13h-2.4z"></path><path fill="#2896FF" d="M0 .017h21c2.614.026 5.215.362 7.75 1 2.661.625 5.175 1.762 7.4 3.35 2.33 1.713 4.216 3.959 5.5 6.55 1.603 3.147 2.41 6.639 2.35 10.17.031 3.226-.62 6.423-1.91 9.38-1.065 2.513-2.686 4.753-4.74 6.55-1.989 1.7-4.302 2.98-6.8 3.76-2.585.832-5.284 1.254-8 1.25H7v28.99H0v-71zm7 35h15.27c1.989.1 3.98-.155 5.88-.75 1.693-.517 3.28-1.33 4.69-2.4 1.364-1.048 2.44-2.424 3.13-4 .922-2.114 1.366-4.405 1.3-6.71.064-2.274-.398-4.533-1.35-6.6-.75-1.651-1.865-3.111-3.26-4.27-1.55-1.159-3.314-1.998-5.19-2.47-1.82-.524-3.705-.794-5.6-.8H7v28zM59.45 42.017l13.88-33.11 13.97 33.11h7.16l-17.79-42H70l-17.71 42h7.16zM49.33 49.017l-9.33 22h7.22l9.28-22h-7.17zM90.2 49.007l9.24 22.12h7.23l-9.3-22.12H90.2zM174.14 42.017c.1-.67.19-1.35.24-2 .19-2.11.29-3.6.29-4.47 0-.87-.1-2.36-.29-4.47-.245-2.39-.707-4.753-1.38-7.06-.816-2.85-1.954-5.597-3.39-8.19-1.612-2.96-3.742-5.605-6.29-7.81-2.955-2.517-6.344-4.476-10-5.78-4.732-1.61-9.714-2.363-14.71-2.22H118v42h7V6.687h11.93c4.126-.032 8.234.548 12.19 1.72 3.621 1.048 6.985 2.836 9.88 5.25 2.859 2.456 5.117 5.535 6.6 9 1.692 4.092 2.509 8.493 2.4 12.92.007 2.157-.167 4.312-.52 6.44h6.66zM194 42.237c0-.79-.07-1.57-.07-2.33V.017H187v42.22h7zM239 42.017v-42h-7v39.89c0 .7 0 1.39-.06 2.11H239zM231.43 49.017c-.495 2.457-1.376 4.82-2.61 7-1.411 2.496-3.43 4.594-5.87 6.1-2.533 1.6-5.89 2.4-10.07 2.4-4.18 0-7.537-.8-10.07-2.4-2.44-1.506-4.459-3.604-5.87-6.1-1.241-2.178-2.126-4.542-2.62-7h-7.07c.204 1.38.481 2.749.83 4.1.819 3.337 2.317 6.468 4.4 9.2 2.154 2.746 4.931 4.94 8.1 6.4 7.884 3.2 16.706 3.2 24.59 0 3.169-1.46 5.946-3.654 8.1-6.4 2.091-2.727 3.589-5.86 4.4-9.2.352-1.35.632-2.72.84-4.1h-7.08zM253.82 48.907l-9.38 22.22h7.23l9.32-22.22h-7.17zM263.79 42.237l13.99-33.33 13.99 33.33h7.15L281.11.017h-6.67l-17.81 42.22h7.16zM294.56 48.907l9.33 22.22h7.22l-9.37-22.22h-7.18zM165.33 49.017c-1.47 3.25-3.63 6.14-6.33 8.47-2.889 2.412-6.246 4.2-9.86 5.25-3.956 1.172-8.064 1.752-12.19 1.72H125v-15.44h-7v22.11h20.61c4.992.127 9.967-.638 14.69-2.26 3.654-1.305 7.042-3.26 10-5.77 2.55-2.2 4.687-4.838 6.31-7.79 1.112-2.014 2.052-4.118 2.81-6.29h-7.09z"></path></svg>